<?xml version="1.0" encoding="iso-8859-1"?>
<!-- Generator: Adobe Illustrator 19.0.0, SVG Export Plug-In . SVG Version: 6.00 Build 0)  -->
<svg version="1.1" id="Layer_1" xmlns="http://www.w3.org/2000/svg" xmlns:xlink="http://www.w3.org/1999/xlink" x="0px" y="0px"
	 viewBox="0 0 505 505" style="enable-background:new 0 0 505 505;" xml:space="preserve">
<circle style="fill:#FD8469;" cx="252.5" cy="252.5" r="252.5"/>
<g>
	<path style="fill:#324A5E;" d="M424.5,183.8l-248-80.9c-8.7-2.8-18,1.9-20.9,10.6L105,268.8c-2.8,8.7,1.9,18,10.6,20.9l248,80.9
		c8.7,2.8,18-1.9,20.9-10.6l24.9-76.3l9.2-28.1l4.2-12.9l6.6-20.1l3.9-11.9l1.5-4.6l0.5-1.5C437.9,196,433.1,186.7,424.5,183.8z"/>
	<path style="fill:#324A5E;" d="M224.4,288.9c0.4-1.2,0.9-2.4,1.5-3.6C225.3,286.5,224.8,287.7,224.4,288.9z"/>
	<path style="fill:#324A5E;" d="M225.9,302.9c-0.6-1.2-1.1-2.4-1.5-3.6C224.8,300.5,225.3,301.7,225.9,302.9z"/>
</g>
<path style="fill:#FFFFFF;" d="M370.2,173.9H109.3c-9.1,0-16.5,7.4-16.5,16.5v163.3c0,9.1,7.4,16.5,16.5,16.5h260.9
	c9.1,0,16.5-7.4,16.5-16.5V190.4C386.8,181.3,379.4,173.9,370.2,173.9z"/>
<g>
	<path style="fill:#4CDBC4;" d="M290.9,215.1l-16.1-35.7c-10.6,9-14.7,28.6-12.2,52.3C271.1,225.7,280.6,220.1,290.9,215.1z"/>
	<path style="fill:#4CDBC4;" d="M347.5,196.9c14.4-2.2,27.8-2.2,39.3-0.2v-4.8c-8.9-7.8-19.1-13.9-30-18.1h-34
		C331.2,179.7,339.6,187.5,347.5,196.9z"/>
	<path style="fill:#4CDBC4;" d="M333.4,199.7c-16.2-17.6-33.6-27.4-47.3-25.4l16.1,35.7C312.8,205.6,323.2,202.2,333.4,199.7z"/>
	<path style="fill:#4CDBC4;" d="M308.8,333.9c16.3,17.7,33.7,27.5,47.5,25.5l-16.2-35.9C329.5,328,319,331.5,308.8,333.9z"/>
	<path style="fill:#4CDBC4;" d="M294.6,336.7c-17.3,2.7-33.1,2.2-46-1.2c21,22,51.1,33.4,81.4,30.7
		C318.1,360.3,305.9,350.2,294.6,336.7z"/>
	<path style="fill:#4CDBC4;" d="M351.5,318.4l16.2,35.9c10.6-9.1,14.8-28.7,12.3-52.6C371.4,307.8,361.9,313.4,351.5,318.4z"/>
	<path style="fill:#4CDBC4;" d="M251.1,240.5c-2.7-17.3-2.2-33,1.2-45.8c-21.9,20.9-33.2,50.9-30.6,81
		C227.7,263.8,237.7,251.7,251.1,240.5z"/>
	<path style="fill:#4CDBC4;" d="M377.9,248c1.1,2.5,2,5,3,7.5c0.1,0.3,0.2,0.6,0.3,0.9c0.8,2.2,1.6,4.5,2.4,6.7
		c0.3,0.9,0.6,1.9,0.9,2.8c0.5,1.7,1.1,3.4,1.6,5c0.2,0.8,0.4,1.7,0.7,2.5v-29.5L377.9,248z"/>
	<path style="fill:#4CDBC4;" d="M382.8,208.6c-0.8-0.1-1.5-0.2-2.3-0.3c-0.6-0.1-1.2-0.1-1.8-0.2c-0.8-0.1-1.6-0.1-2.3-0.2
		c-0.6,0-1.2-0.1-1.8-0.1c-0.8,0-1.7-0.1-2.5-0.1c-0.6,0-1.2,0-1.9,0c-0.9,0-1.8,0-2.7,0c-0.6,0-1.2,0-1.8,0c-1,0-2.1,0.1-3.1,0.1
		c-0.5,0-1,0-1.5,0.1c-1.6,0.1-3.1,0.2-4.8,0.4c1.6,2.3,3.1,4.6,4.7,7c0.9,1.5,1.8,3,2.8,4.5c0.5,0.8,1,1.7,1.5,2.5
		c1.2,2,2.3,4.1,3.5,6.2c0.2,0.3,0.3,0.6,0.5,0.9c1.3,2.4,2.5,4.8,3.7,7.2l13.9-6.3v-21.1c-0.8-0.2-1.5-0.3-2.3-0.5
		C383.9,208.7,383.3,208.7,382.8,208.6z"/>
	<path style="fill:#4CDBC4;" d="M285.3,300.8c1.4,2.5,2.8,4.9,4.3,7.3c0.5,0.8,0.9,1.5,1.4,2.2c1.2,1.8,2.3,3.7,3.5,5.4
		c1.8,2.6,3.6,5.1,5.4,7.5c11.3-2.3,23.2-5.9,35.1-10.8L318.1,275l-37.3,16.9c1.4,2.8,2.8,5.6,4.3,8.3
		C285.1,300.4,285.2,300.6,285.3,300.8z"/>
	<path style="fill:#4CDBC4;" d="M264.7,245.6c0.6,3,1.3,6,2.1,9c0.5,2.1,1.1,4.1,1.7,6.2c0.2,0.8,0.5,1.7,0.7,2.5
		c0.8,2.7,1.7,5.3,2.7,8c0.1,0.2,0.1,0.4,0.2,0.6c1.1,2.9,2.2,5.8,3.4,8.7l37.3-16.9l-16.9-37.4
		C284.4,232.1,273.9,238.6,264.7,245.6z"/>
	<path style="fill:#4CDBC4;" d="M261.3,278.3c-0.1-0.3-0.2-0.6-0.4-0.9c-0.8-2.2-1.6-4.5-2.4-6.7c-0.3-0.9-0.6-1.9-0.9-2.8
		c-0.5-1.7-1.1-3.4-1.6-5c-0.8-2.7-1.5-5.5-2.2-8.1c-1.2,1.1-2.3,2.2-3.5,3.3c-0.4,0.4-0.7,0.7-1.1,1.1c-0.7,0.7-1.5,1.5-2.2,2.2
		c-0.4,0.4-0.8,0.9-1.2,1.3c-0.6,0.7-1.2,1.3-1.8,2c-0.4,0.5-0.8,0.9-1.2,1.4c-0.5,0.6-1.1,1.3-1.6,1.9c-0.4,0.5-0.8,1-1.1,1.5
		c-0.5,0.6-0.9,1.3-1.4,1.9c-0.4,0.5-0.7,1-1.1,1.5c-0.4,0.6-0.9,1.3-1.3,1.9c-0.3,0.5-0.6,1-0.9,1.4c-0.6,1-1.2,2.1-1.8,3.1
		c-0.3,0.6-0.6,1.1-0.8,1.6c-0.3,0.5-0.5,1.1-0.8,1.6c-0.3,0.6-0.5,1.2-0.8,1.8c-0.2,0.5-0.4,1-0.6,1.4c-0.2,0.6-0.4,1.2-0.6,1.8
		c-0.2,0.4-0.3,0.9-0.4,1.3c-0.2,0.6-0.4,1.2-0.5,1.8c-0.1,0.4-0.2,0.8-0.3,1.2c-0.1,0.6-0.3,1.2-0.4,1.8c-0.1,0.4-0.1,0.7-0.1,1.1
		c-0.1,0.6-0.2,1.3-0.2,1.9c0,0.2,0,0.5,0,0.7c-0.1,1.6,0,3.2,0.2,4.7l0,0l35.8-16.2C263.2,283.3,262.2,280.8,261.3,278.3z"/>
	<path style="fill:#4CDBC4;" d="M250.4,323.1c0.6,0.2,1.1,0.3,1.7,0.4c0.7,0.2,1.3,0.3,2,0.5c1.1,0.2,2.2,0.5,3.4,0.7
		c0.6,0.1,1.1,0.2,1.7,0.2c0.8,0.1,1.5,0.2,2.3,0.3c0.6,0.1,1.2,0.1,1.8,0.2c0.8,0.1,1.6,0.1,2.3,0.2c0.6,0,1.2,0.1,1.9,0.1
		c0.8,0,1.7,0.1,2.5,0.1c0.6,0,1.2,0,1.9,0c0.9,0,1.8,0,2.7,0c0.6,0,1.2,0,1.8,0c1,0,2.1-0.1,3.1-0.1c0.5,0,1,0,1.5-0.1
		c1.6-0.1,3.2-0.2,4.8-0.4c-1.6-2.3-3.2-4.6-4.7-7c-0.9-1.5-1.8-3-2.8-4.5c-0.5-0.9-1-1.7-1.5-2.6c-1.2-2-2.3-4.1-3.5-6.2
		c-0.2-0.3-0.3-0.6-0.5-0.9c-1.3-2.4-2.5-4.8-3.7-7.3l-36,16.3l0,0c1,1.2,2.1,2.2,3.4,3.3c0.2,0.2,0.4,0.3,0.6,0.5
		c0.5,0.4,1,0.7,1.6,1.1c0.3,0.2,0.6,0.4,0.9,0.6c0.5,0.3,1.1,0.6,1.6,0.9c0.4,0.2,0.7,0.4,1.1,0.6c0.6,0.3,1.1,0.6,1.7,0.8
		c0.4,0.2,0.9,0.4,1.3,0.6c0.6,0.2,1.2,0.5,1.8,0.7c0.5,0.2,1,0.3,1.5,0.5C249.2,322.8,249.8,323,250.4,323.1z"/>
	<path style="fill:#4CDBC4;" d="M324.2,258.7l37.3-16.9c-1.4-2.8-2.8-5.6-4.3-8.3c-0.1-0.2-0.2-0.4-0.3-0.5
		c-1.4-2.5-2.8-4.9-4.2-7.3c-0.5-0.8-1-1.5-1.4-2.3c-1.1-1.8-2.3-3.6-3.5-5.4c-1.8-2.6-3.6-5.1-5.4-7.5
		c-11.3,2.3-23.2,5.9-35.1,10.8L324.2,258.7z"/>
	<path style="fill:#4CDBC4;" d="M346.2,307.3c11.6-5.7,22.1-12.2,31.3-19.2c-0.6-3-1.3-6-2.1-9c-0.5-2.1-1.1-4.1-1.7-6.2
		c-0.2-0.8-0.5-1.7-0.7-2.5c-0.8-2.7-1.7-5.3-2.7-8c-0.1-0.2-0.1-0.4-0.2-0.6c-1.1-2.9-2.2-5.8-3.4-8.7L329.4,270L346.2,307.3z"/>
</g>
<g>
	<path style="fill:#324A5E;" d="M230.4,231.8c0.1,0.8,0.2,1.5,0.2,2.3C230.6,233.3,230.5,232.6,230.4,231.8z"/>
	<path style="fill:#324A5E;" d="M230.6,234.1c0,0.8,0,1.6,0,2.4C230.7,235.7,230.7,234.9,230.6,234.1z"/>
</g>
<rect x="121.3" y="203.2" style="fill:#FFD05B;" width="36.2" height="36.2"/>
<g>
</g>
<g>
</g>
<g>
</g>
<g>
</g>
<g>
</g>
<g>
</g>
<g>
</g>
<g>
</g>
<g>
</g>
<g>
</g>
<g>
</g>
<g>
</g>
<g>
</g>
<g>
</g>
<g>
</g>
</svg>
